<svg width="40" height="40" viewBox="0 0 40 40" fill="none" xmlns="http://www.w3.org/2000/svg">
<g clip-path="url(#clip0_164_12753)">
<path d="M29.4486 3.10454L27.7286 20.5005H24.8676L23.3176 11.0145C22.9286 7.31154 25.0426 3.80054 28.4966 2.41054C28.9726 2.21854 29.4856 2.59254 29.4486 3.10454Z" fill="#D5D5D5"/>
<path d="M13.2856 20.5L12.1316 35.817C12.1086 36.817 12.9126 37.641 13.9136 37.641H15.5156C16.5166 37.641 17.3206 36.818 17.2976 35.817L16.1466 20.5H13.2856Z" fill="#4983FF"/>
<path d="M24.8686 20.5L23.7146 35.817C23.6916 36.817 24.4956 37.641 25.4966 37.641H27.0986C28.0996 37.641 28.9036 36.818 28.8806 35.817L27.7296 20.5H24.8686Z" fill="#4983FF"/>
<path d="M16.093 19.7425C16.101 18.6645 16.944 18.3625 16.944 18.3625L16.939 18.3575C16.974 18.3405 17.012 18.3315 17.047 18.3135L19.155 17.5655C20.308 16.9765 21.009 15.5115 20.86 14.0035L19.373 3.2085C19.306 2.7225 18.89 2.3595 18.399 2.3595C17.851 2.3595 17.409 2.8075 17.416 3.3545L17.532 12.6615C17.532 13.0075 17.363 13.3185 17.1 13.4525C16.925 13.5425 16.725 13.5425 16.551 13.4525C16.289 13.3185 16.119 13.0085 16.119 12.6615L15.961 3.3255C15.952 2.7895 15.515 2.3595 14.978 2.3595H14.446C13.91 2.3595 13.472 2.7895 13.463 3.3255L13.305 12.6615C13.305 13.0075 13.136 13.3185 12.872 13.4525C12.699 13.5425 12.498 13.5425 12.323 13.4525C12.061 13.3185 11.891 13.0085 11.891 12.6615L12.008 3.3545C12.015 2.8065 11.573 2.3595 11.025 2.3595C10.534 2.3595 10.118 2.7215 10.051 3.2085L8.56403 14.0035C8.41503 15.5115 9.11703 16.9755 10.269 17.5655L12.377 18.3135C12.411 18.3305 12.447 18.3395 12.482 18.3555L12.476 18.3615C12.476 18.3615 13.358 18.6705 13.331 19.8015L13.282 20.4995H16.143L16.09 19.7415L16.093 19.7425Z" fill="#D5D5D5"/>
</g>
<defs>
<clipPath id="clip0_164_12753">
<rect width="40" height="40" fill="white"/>
</clipPath>
</defs>
</svg>
