<svg width="36" height="36" viewBox="0 0 36 36" fill="none" xmlns="http://www.w3.org/2000/svg">
<g clip-path="url(#clip0_52_4915)">
<path d="M27.4599 19.4205H8.54015C4.81769 19.4205 1.80005 22.438 1.80005 26.1602C1.80005 29.8824 4.81769 32.8998 8.54015 32.8998H27.4599C31.1824 32.8998 34.2001 29.8824 34.2001 26.1602C34.2001 22.438 31.1824 19.4205 27.4599 19.4205Z" fill="#C57F50"/>
<path d="M24.5969 11.6896H11.4029C7.99705 11.6896 5.23608 14.4503 5.23608 17.8559C5.23608 21.2615 7.99705 24.0223 11.4029 24.0223H24.5969C28.0027 24.0223 30.7637 21.2615 30.7637 17.8559C30.7637 14.4503 28.0027 11.6896 24.5969 11.6896Z" fill="#C57F50"/>
<path d="M16.1345 13.9008H21.8315C23.7557 13.9008 25.5656 12.1467 25.5656 9.98313C25.5656 5.84043 17.1794 3.10083 17.1794 3.10083C17.1794 3.10083 17.3 4.18083 15.6872 5.43993C14.6117 6.27963 13.2329 6.47403 11.9558 7.54683C10.613 8.67453 10.2017 10.2747 10.7444 12.0333C11.2871 13.7919 14.2094 13.9008 16.1345 13.9008Z" fill="#C57F50"/>
<path d="M18.0352 23.2479C16.7995 23.2479 15.7816 23.0769 15.0022 22.8708C14.383 22.707 13.9501 23.4639 14.3974 23.9229C15.1768 24.723 16.3612 25.4934 18.0352 25.4934C19.7092 25.4934 20.8936 24.723 21.673 23.9229C22.1203 23.4639 21.6874 22.707 21.0682 22.8708C20.2897 23.0769 19.2709 23.2479 18.0352 23.2479Z" fill="#7B261E"/>
<path d="M21.7152 20.2807C22.6353 20.2807 23.3811 19.5348 23.3811 18.6148C23.3811 17.6947 22.6353 16.9489 21.7152 16.9489C20.7952 16.9489 20.0493 17.6947 20.0493 18.6148C20.0493 19.5348 20.7952 20.2807 21.7152 20.2807Z" fill="black"/>
<path d="M14.3505 20.2807C15.2705 20.2807 16.0164 19.5348 16.0164 18.6148C16.0164 17.6947 15.2705 16.9489 14.3505 16.9489C13.4304 16.9489 12.6846 17.6947 12.6846 18.6148C12.6846 19.5348 13.4304 20.2807 14.3505 20.2807Z" fill="black"/>
</g>
<defs>
<clipPath id="clip0_52_4915">
<rect width="36" height="36" fill="white"/>
</clipPath>
</defs>
</svg>
